<svg xmlns="http://www.w3.org/2000/svg" width="1800" height="1100" viewBox="0 0 1800 1100" role="img" aria-label="Теплая сцена с мягким светом">
  <defs>
    <linearGradient id="bg" x1="0" x2="1" y1="0" y2="1">
      <stop offset="0" stop-color="#fff4e7"/>
      <stop offset="0.5" stop-color="#d98243"/>
      <stop offset="1" stop-color="#5b3528"/>
    </linearGradient>
    <radialGradient id="light" cx="62%" cy="38%" r="55%">
      <stop offset="0" stop-color="#fff8df" stop-opacity="0.82"/>
      <stop offset="0.45" stop-color="#d98243" stop-opacity="0.34"/>
      <stop offset="1" stop-color="#2e211b" stop-opacity="0"/>
    </radialGradient>
    <filter id="blur">
      <feGaussianBlur stdDeviation="26"/>
    </filter>
  </defs>
  <rect width="1800" height="1100" fill="url(#bg)"/>
  <rect width="1800" height="1100" fill="url(#light)"/>
  <path d="M1180 0h430l-205 1100H980z" fill="#fff4d7" opacity="0.16"/>
  <path d="M1420 0h190l-80 1100h-280z" fill="#fff8df" opacity="0.11"/>
  <ellipse cx="1290" cy="884" rx="420" ry="90" fill="#2e211b" opacity="0.28" filter="url(#blur)"/>
  <g opacity="0.72">
    <rect x="1090" y="410" width="58" height="420" rx="29" fill="#2e211b"/>
    <circle cx="1119" cy="374" r="58" fill="#2e211b"/>
    <rect x="1228" y="500" width="52" height="330" rx="26" fill="#4a2b21"/>
    <circle cx="1254" cy="468" r="46" fill="#4a2b21"/>
    <rect x="1365" y="455" width="48" height="375" rx="24" fill="#38231d"/>
    <circle cx="1389" cy="425" r="44" fill="#38231d"/>
  </g>
  <path d="M0 860c260-70 520-86 780-48s500 44 720-22c140-42 240-42 300-16v326H0z" fill="#2e211b" opacity="0.38"/>
  <path d="M0 910c270-54 520-58 750-12 290 58 600 26 1050-76v278H0z" fill="#2e211b" opacity="0.36"/>
</svg>

